<svg width="500" height="500" viewBox="0 0 500 500" fill="none" xmlns="http://www.w3.org/2000/svg">
<rect width="500" height="500" fill="white"/>
<path d="M318.607 320.675L315.758 318.073L312.961 315.523H190.661L187.864 318.073L185.015 320.675L184.678 320.984V324.075H322.336L318.607 320.675Z" fill="black"/>
<path d="M326.636 191.566L324.046 193.936V299.758L326.636 302.102L329.226 304.472L332.671 307.615V186.079L329.226 189.222L326.636 191.566Z" fill="black"/>
<path d="M322.673 169.284L325.496 166.708H178.125L180.948 169.284L183.797 171.86H319.824L322.673 169.284Z" fill="black"/>
<path d="M179.628 299.681V193.987L177.038 191.617L174.448 189.247V304.42L177.038 302.051L179.628 299.681Z" fill="black"/>
<path d="M292.474 188.552C294.923 188.559 297.317 189.275 299.363 190.613L309.49 181.365H194.132L236.633 220.005L243.73 206.069L258.027 228.145L281.337 206.816C280.324 204.914 279.825 202.783 279.888 200.632C279.951 198.48 280.574 196.382 281.696 194.542C282.818 192.702 284.401 191.182 286.29 190.132C288.179 189.083 290.31 188.538 292.474 188.552Z" fill="black"/>
<path d="M225.289 242.081L227.568 237.676L187.475 201.123V267.687H194.65L217.649 230.489L225.289 242.081Z" fill="black"/>
<path d="M314.592 267.687V202.565L286.154 228.48L310.889 267.687H314.592Z" fill="black"/>
<path d="M352.122 145.687L329.071 166.708L326.247 169.284L323.424 171.86L318.788 176.084L318.348 176.471L317.908 176.883L313.945 180.489L313.531 180.876L313.09 181.288L301.254 192.081L282.891 208.825L259.451 230.18L254.116 235.049L251.811 237.135L249.506 235.049L235.494 222.272L190.531 181.288L190.091 180.876L189.677 180.489L185.714 176.883L185.274 176.471L184.833 176.084L180.197 171.86L177.374 169.284L174.551 166.708L151.5 145.687L142.694 137.65L132.982 148.186L174.448 186.002L177.038 188.372L179.628 190.716L183.875 194.606L184.264 194.941L184.678 195.327L186.672 197.156L187.087 197.517L187.475 197.877L228.682 235.461L238.861 244.735L241.192 246.821L218.296 267.687L217.882 268.073L217.442 268.485L211.51 273.869L184.678 298.341L184.264 298.728L183.875 299.088L179.628 302.952L177.038 305.322L174.448 307.666L143.886 335.539L151.5 343.782L153.598 346.074L181.466 320.675L183.875 318.46L184.264 318.125L184.315 318.073L184.678 317.738L187.113 315.523L233.007 273.663L238.705 268.485L239.146 268.073L239.586 267.687L251.811 256.533L264.036 267.687L264.476 268.073L264.916 268.485L270.226 273.302L316.509 315.523L319.306 318.073L322.155 320.675L325.885 324.075L326.351 324.488L326.765 324.874L350.024 346.074L352.122 343.782L359.736 335.539L333.474 311.582L333.085 311.247L332.671 310.861L329.226 307.718L326.636 305.348L324.046 303.004L291.257 273.122L286.18 268.485L285.74 268.073L285.325 267.687L262.43 246.821L264.761 244.735L284.859 226.419L314.592 199.294L314.981 198.933L315.395 198.573L324.046 190.664L326.636 188.32L329.226 185.95L332.671 182.808L333.085 182.421L333.474 182.086L370.64 148.186L360.928 137.65L352.122 145.687Z" fill="black"/>
<path d="M134.7 399V385H136.16V396.6L145.12 385H146.46V399H145V387.42L136.04 399H134.7ZM153.664 399.12C152.904 399.12 152.151 399.013 151.404 398.8C150.658 398.587 149.998 398.26 149.424 397.82L149.884 396.76C150.391 397.133 150.978 397.42 151.644 397.62C152.311 397.807 152.971 397.9 153.624 397.9C154.278 397.887 154.844 397.793 155.324 397.62C155.804 397.447 156.178 397.207 156.444 396.9C156.711 396.593 156.844 396.247 156.844 395.86C156.844 395.3 156.591 394.867 156.084 394.56C155.578 394.24 154.884 394.08 154.004 394.08H152.204V393.04H153.904C154.424 393.04 154.884 392.973 155.284 392.84C155.684 392.707 155.991 392.513 156.204 392.26C156.431 392.007 156.544 391.707 156.544 391.36C156.544 390.987 156.411 390.667 156.144 390.4C155.891 390.133 155.538 389.933 155.084 389.8C154.631 389.667 154.118 389.6 153.544 389.6C153.024 389.613 152.484 389.693 151.924 389.84C151.364 389.973 150.811 390.18 150.264 390.46L149.864 389.36C150.478 389.04 151.084 388.8 151.684 388.64C152.298 388.467 152.911 388.38 153.524 388.38C154.364 388.353 155.118 388.453 155.784 388.68C156.464 388.907 157.004 389.233 157.404 389.66C157.804 390.073 158.004 390.573 158.004 391.16C158.004 391.68 157.844 392.133 157.524 392.52C157.204 392.907 156.778 393.207 156.244 393.42C155.711 393.633 155.104 393.74 154.424 393.74L154.484 393.36C155.684 393.36 156.618 393.593 157.284 394.06C157.964 394.527 158.304 395.16 158.304 395.96C158.304 396.587 158.098 397.14 157.684 397.62C157.271 398.087 156.711 398.453 156.004 398.72C155.311 398.987 154.531 399.12 153.664 399.12ZM165.848 399.1C164.834 399.1 163.921 398.873 163.108 398.42C162.308 397.953 161.674 397.32 161.208 396.52C160.741 395.707 160.508 394.78 160.508 393.74C160.508 392.687 160.741 391.76 161.208 390.96C161.674 390.16 162.308 389.533 163.108 389.08C163.908 388.627 164.821 388.4 165.848 388.4C166.888 388.4 167.808 388.627 168.608 389.08C169.421 389.533 170.054 390.16 170.508 390.96C170.974 391.76 171.208 392.687 171.208 393.74C171.208 394.78 170.974 395.707 170.508 396.52C170.054 397.32 169.421 397.953 168.608 398.42C167.794 398.873 166.874 399.1 165.848 399.1ZM165.848 397.84C166.608 397.84 167.281 397.673 167.868 397.34C168.454 396.993 168.914 396.513 169.248 395.9C169.594 395.273 169.768 394.553 169.768 393.74C169.768 392.913 169.594 392.193 169.248 391.58C168.914 390.967 168.454 390.493 167.868 390.16C167.281 389.813 166.614 389.64 165.868 389.64C165.121 389.64 164.454 389.813 163.868 390.16C163.281 390.493 162.814 390.967 162.468 391.58C162.121 392.193 161.948 392.913 161.948 393.74C161.948 394.553 162.121 395.273 162.468 395.9C162.814 396.513 163.281 396.993 163.868 397.34C164.454 397.673 165.114 397.84 165.848 397.84ZM178.963 399.12C178.109 399.12 177.349 398.98 176.683 398.7C176.029 398.42 175.469 397.993 175.003 397.42C174.536 396.847 174.183 396.14 173.943 395.3C173.703 394.447 173.583 393.46 173.583 392.34C173.583 391.34 173.676 390.467 173.863 389.72C174.049 388.96 174.309 388.307 174.643 387.76C174.976 387.213 175.363 386.753 175.803 386.38C176.256 385.993 176.743 385.687 177.263 385.46C177.796 385.22 178.343 385.04 178.903 384.92L183.623 383.82L183.863 385.14L179.423 386.14C179.143 386.207 178.803 386.3 178.403 386.42C178.016 386.54 177.616 386.72 177.203 386.96C176.803 387.2 176.429 387.533 176.083 387.96C175.736 388.387 175.456 388.94 175.243 389.62C175.043 390.287 174.943 391.12 174.943 392.12C174.943 392.333 174.949 392.507 174.963 392.64C174.976 392.76 174.989 392.893 175.003 393.04C175.029 393.173 175.049 393.373 175.063 393.64L174.443 393.12C174.589 392.307 174.889 391.6 175.343 391C175.796 390.387 176.363 389.913 177.043 389.58C177.736 389.233 178.503 389.06 179.343 389.06C180.316 389.06 181.183 389.273 181.943 389.7C182.703 390.113 183.296 390.693 183.723 391.44C184.163 392.187 184.383 393.053 184.383 394.04C184.383 395.013 184.156 395.887 183.703 396.66C183.263 397.433 182.636 398.04 181.823 398.48C181.009 398.907 180.056 399.12 178.963 399.12ZM179.123 397.94C179.869 397.94 180.529 397.773 181.103 397.44C181.676 397.093 182.123 396.627 182.443 396.04C182.776 395.453 182.943 394.793 182.943 394.06C182.943 393.34 182.776 392.7 182.443 392.14C182.123 391.58 181.676 391.14 181.103 390.82C180.529 390.487 179.863 390.32 179.103 390.32C178.356 390.32 177.696 390.48 177.123 390.8C176.549 391.107 176.096 391.54 175.763 392.1C175.443 392.66 175.283 393.307 175.283 394.04C175.283 394.773 175.443 395.433 175.763 396.02C176.096 396.607 176.549 397.073 177.123 397.42C177.709 397.767 178.376 397.94 179.123 397.94ZM192.846 399.1C191.94 399.1 191.12 398.893 190.386 398.48C189.653 398.053 189.066 397.447 188.626 396.66C188.2 395.86 187.986 394.887 187.986 393.74C187.986 392.593 188.2 391.627 188.626 390.84C189.053 390.04 189.633 389.433 190.366 389.02C191.1 388.607 191.926 388.4 192.846 388.4C193.846 388.4 194.74 388.627 195.526 389.08C196.326 389.52 196.953 390.147 197.406 390.96C197.86 391.76 198.086 392.687 198.086 393.74C198.086 394.807 197.86 395.74 197.406 396.54C196.953 397.34 196.326 397.967 195.526 398.42C194.74 398.873 193.846 399.1 192.846 399.1ZM187.426 402.88V388.5H188.786V391.66L188.646 393.76L188.846 395.88V402.88H187.426ZM192.746 397.84C193.493 397.84 194.16 397.673 194.746 397.34C195.333 396.993 195.8 396.513 196.146 395.9C196.493 395.273 196.666 394.553 196.666 393.74C196.666 392.927 196.493 392.213 196.146 391.6C195.8 390.987 195.333 390.507 194.746 390.16C194.16 389.813 193.493 389.64 192.746 389.64C192 389.64 191.326 389.813 190.726 390.16C190.14 390.507 189.673 390.987 189.326 391.6C188.993 392.213 188.826 392.927 188.826 393.74C188.826 394.553 188.993 395.273 189.326 395.9C189.673 396.513 190.14 396.993 190.726 397.34C191.326 397.673 192 397.84 192.746 397.84ZM207.599 399V396.68L207.539 396.3V392.42C207.539 391.527 207.285 390.84 206.779 390.36C206.285 389.88 205.545 389.64 204.559 389.64C203.879 389.64 203.232 389.753 202.619 389.98C202.005 390.207 201.485 390.507 201.059 390.88L200.419 389.82C200.952 389.367 201.592 389.02 202.339 388.78C203.085 388.527 203.872 388.4 204.699 388.4C206.059 388.4 207.105 388.74 207.839 389.42C208.585 390.087 208.959 391.107 208.959 392.48V399H207.599ZM203.979 399.1C203.192 399.1 202.505 398.973 201.919 398.72C201.345 398.453 200.905 398.093 200.599 397.64C200.292 397.173 200.139 396.64 200.139 396.04C200.139 395.493 200.265 395 200.519 394.56C200.785 394.107 201.212 393.747 201.799 393.48C202.399 393.2 203.199 393.06 204.199 393.06H207.819V394.12H204.239C203.225 394.12 202.519 394.3 202.119 394.66C201.732 395.02 201.539 395.467 201.539 396C201.539 396.6 201.772 397.08 202.239 397.44C202.705 397.8 203.359 397.98 204.199 397.98C204.999 397.98 205.685 397.8 206.259 397.44C206.845 397.067 207.272 396.533 207.539 395.84L207.859 396.82C207.592 397.513 207.125 398.067 206.459 398.48C205.805 398.893 204.979 399.1 203.979 399.1ZM225.199 399L221.599 393.8L222.779 393.1L226.899 399H225.199ZM219.239 394.32V393.1H222.559V394.32H219.239ZM222.919 393.9L221.559 393.7L225.059 388.5H226.599L222.919 393.9ZM212.759 399H211.059L215.179 393.1L216.339 393.8L212.759 399ZM219.679 399H218.259V388.5H219.679V399ZM218.699 394.32H215.399V393.1H218.699V394.32ZM215.059 393.9L211.359 388.5H212.899L216.379 393.7L215.059 393.9ZM233.391 399.1C232.298 399.1 231.338 398.873 230.511 398.42C229.684 397.953 229.038 397.32 228.571 396.52C228.104 395.707 227.871 394.78 227.871 393.74C227.871 392.7 228.091 391.78 228.531 390.98C228.984 390.18 229.598 389.553 230.371 389.1C231.158 388.633 232.038 388.4 233.011 388.4C233.998 388.4 234.871 388.627 235.631 389.08C236.404 389.52 237.011 390.147 237.451 390.96C237.891 391.76 238.111 392.687 238.111 393.74C238.111 393.807 238.104 393.88 238.091 393.96C238.091 394.027 238.091 394.1 238.091 394.18H228.951V393.12H237.331L236.771 393.54C236.771 392.78 236.604 392.107 236.271 391.52C235.951 390.92 235.511 390.453 234.951 390.12C234.391 389.787 233.744 389.62 233.011 389.62C232.291 389.62 231.644 389.787 231.071 390.12C230.498 390.453 230.051 390.92 229.731 391.52C229.411 392.12 229.251 392.807 229.251 393.58V393.8C229.251 394.6 229.424 395.307 229.771 395.92C230.131 396.52 230.624 396.993 231.251 397.34C231.891 397.673 232.618 397.84 233.431 397.84C234.071 397.84 234.664 397.727 235.211 397.5C235.771 397.273 236.251 396.927 236.651 396.46L237.451 397.38C236.984 397.94 236.398 398.367 235.691 398.66C234.998 398.953 234.231 399.1 233.391 399.1ZM241.254 399V388.5H242.674V393.14H249.294V388.5H250.714V399H249.294V394.36H242.674V399H241.254ZM254.75 399V388.5H256.17V396.84L263.19 388.5H264.45V399H263.03V390.64L256.03 399H254.75ZM273.02 399.1C271.927 399.1 270.967 398.873 270.14 398.42C269.313 397.953 268.667 397.32 268.2 396.52C267.733 395.707 267.5 394.78 267.5 393.74C267.5 392.7 267.72 391.78 268.16 390.98C268.613 390.18 269.227 389.553 270 389.1C270.787 388.633 271.667 388.4 272.64 388.4C273.627 388.4 274.5 388.627 275.26 389.08C276.033 389.52 276.64 390.147 277.08 390.96C277.52 391.76 277.74 392.687 277.74 393.74C277.74 393.807 277.733 393.88 277.72 393.96C277.72 394.027 277.72 394.1 277.72 394.18H268.58V393.12H276.96L276.4 393.54C276.4 392.78 276.233 392.107 275.9 391.52C275.58 390.92 275.14 390.453 274.58 390.12C274.02 389.787 273.373 389.62 272.64 389.62C271.92 389.62 271.273 389.787 270.7 390.12C270.127 390.453 269.68 390.92 269.36 391.52C269.04 392.12 268.88 392.807 268.88 393.58V393.8C268.88 394.6 269.053 395.307 269.4 395.92C269.76 396.52 270.253 396.993 270.88 397.34C271.52 397.673 272.247 397.84 273.06 397.84C273.7 397.84 274.293 397.727 274.84 397.5C275.4 397.273 275.88 396.927 276.28 396.46L277.08 397.38C276.613 397.94 276.027 398.367 275.32 398.66C274.627 398.953 273.86 399.1 273.02 399.1ZM290.518 399.1C289.478 399.1 288.544 398.873 287.718 398.42C286.904 397.953 286.264 397.32 285.798 396.52C285.331 395.707 285.098 394.78 285.098 393.74C285.098 392.687 285.331 391.76 285.798 390.96C286.264 390.16 286.904 389.533 287.718 389.08C288.544 388.627 289.478 388.4 290.518 388.4C291.411 388.4 292.218 388.573 292.938 388.92C293.658 389.267 294.224 389.787 294.638 390.48L293.578 391.2C293.218 390.667 292.771 390.273 292.238 390.02C291.704 389.767 291.124 389.64 290.498 389.64C289.751 389.64 289.078 389.813 288.478 390.16C287.878 390.493 287.404 390.967 287.058 391.58C286.711 392.193 286.538 392.913 286.538 393.74C286.538 394.567 286.711 395.287 287.058 395.9C287.404 396.513 287.878 396.993 288.478 397.34C289.078 397.673 289.751 397.84 290.498 397.84C291.124 397.84 291.704 397.713 292.238 397.46C292.771 397.207 293.218 396.82 293.578 396.3L294.638 397.02C294.224 397.7 293.658 398.22 292.938 398.58C292.218 398.927 291.411 399.1 290.518 399.1ZM297.387 399V388.5H298.827L303.587 396.56H302.987L307.827 388.5H309.147V399H307.847V390.12L308.107 390.24L303.587 397.72H302.947L298.387 390.16L298.687 390.1V399H297.387ZM317.508 399.1C316.495 399.1 315.581 398.873 314.768 398.42C313.968 397.953 313.335 397.32 312.868 396.52C312.401 395.707 312.168 394.78 312.168 393.74C312.168 392.687 312.401 391.76 312.868 390.96C313.335 390.16 313.968 389.533 314.768 389.08C315.568 388.627 316.481 388.4 317.508 388.4C318.548 388.4 319.468 388.627 320.268 389.08C321.081 389.533 321.715 390.16 322.168 390.96C322.635 391.76 322.868 392.687 322.868 393.74C322.868 394.78 322.635 395.707 322.168 396.52C321.715 397.32 321.081 397.953 320.268 398.42C319.455 398.873 318.535 399.1 317.508 399.1ZM317.508 397.84C318.268 397.84 318.941 397.673 319.528 397.34C320.115 396.993 320.575 396.513 320.908 395.9C321.255 395.273 321.428 394.553 321.428 393.74C321.428 392.913 321.255 392.193 320.908 391.58C320.575 390.967 320.115 390.493 319.528 390.16C318.941 389.813 318.275 389.64 317.528 389.64C316.781 389.64 316.115 389.813 315.528 390.16C314.941 390.493 314.475 390.967 314.128 391.58C313.781 392.193 313.608 392.913 313.608 393.74C313.608 394.553 313.781 395.273 314.128 395.9C314.475 396.513 314.941 396.993 315.528 397.34C316.115 397.673 316.775 397.84 317.508 397.84ZM327.512 399V389.36L327.872 389.74H323.532V388.5H332.912V389.74H328.572L328.932 389.36V399H327.512ZM340.385 399.1C339.479 399.1 338.659 398.893 337.925 398.48C337.192 398.053 336.605 397.447 336.165 396.66C335.739 395.86 335.525 394.887 335.525 393.74C335.525 392.593 335.739 391.627 336.165 390.84C336.592 390.04 337.172 389.433 337.905 389.02C338.639 388.607 339.465 388.4 340.385 388.4C341.385 388.4 342.279 388.627 343.065 389.08C343.865 389.52 344.492 390.147 344.945 390.96C345.399 391.76 345.625 392.687 345.625 393.74C345.625 394.807 345.399 395.74 344.945 396.54C344.492 397.34 343.865 397.967 343.065 398.42C342.279 398.873 341.385 399.1 340.385 399.1ZM334.965 402.88V388.5H336.325V391.66L336.185 393.76L336.385 395.88V402.88H334.965ZM340.285 397.84C341.032 397.84 341.699 397.673 342.285 397.34C342.872 396.993 343.339 396.513 343.685 395.9C344.032 395.273 344.205 394.553 344.205 393.74C344.205 392.927 344.032 392.213 343.685 391.6C343.339 390.987 342.872 390.507 342.285 390.16C341.699 389.813 341.032 389.64 340.285 389.64C339.539 389.64 338.865 389.813 338.265 390.16C337.679 390.507 337.212 390.987 336.865 391.6C336.532 392.213 336.365 392.927 336.365 393.74C336.365 394.553 336.532 395.273 336.865 395.9C337.212 396.513 337.679 396.993 338.265 397.34C338.865 397.673 339.539 397.84 340.285 397.84ZM348.676 399V388.5H350.096V396.84L357.116 388.5H358.376V399H356.956V390.64L349.956 399H348.676ZM123.374 423V412.5H124.794V417.14H131.414V412.5H132.834V423H131.414V418.36H124.794V423H123.374ZM143.39 423V420.68L143.33 420.3V416.42C143.33 415.527 143.076 414.84 142.57 414.36C142.076 413.88 141.336 413.64 140.35 413.64C139.67 413.64 139.023 413.753 138.41 413.98C137.796 414.207 137.276 414.507 136.85 414.88L136.21 413.82C136.743 413.367 137.383 413.02 138.13 412.78C138.876 412.527 139.663 412.4 140.49 412.4C141.85 412.4 142.896 412.74 143.63 413.42C144.376 414.087 144.75 415.107 144.75 416.48V423H143.39ZM139.77 423.1C138.983 423.1 138.296 422.973 137.71 422.72C137.136 422.453 136.696 422.093 136.39 421.64C136.083 421.173 135.93 420.64 135.93 420.04C135.93 419.493 136.056 419 136.31 418.56C136.576 418.107 137.003 417.747 137.59 417.48C138.19 417.2 138.99 417.06 139.99 417.06H143.61V418.12H140.03C139.016 418.12 138.31 418.3 137.91 418.66C137.523 419.02 137.33 419.467 137.33 420C137.33 420.6 137.563 421.08 138.03 421.44C138.496 421.8 139.15 421.98 139.99 421.98C140.79 421.98 141.476 421.8 142.05 421.44C142.636 421.067 143.063 420.533 143.33 419.84L143.65 420.82C143.383 421.513 142.916 422.067 142.25 422.48C141.596 422.893 140.77 423.1 139.77 423.1ZM158.164 423.1C157.124 423.1 156.191 422.873 155.364 422.42C154.551 421.953 153.911 421.32 153.444 420.52C152.977 419.707 152.744 418.78 152.744 417.74C152.744 416.687 152.977 415.76 153.444 414.96C153.911 414.16 154.551 413.533 155.364 413.08C156.191 412.627 157.124 412.4 158.164 412.4C159.057 412.4 159.864 412.573 160.584 412.92C161.304 413.267 161.871 413.787 162.284 414.48L161.224 415.2C160.864 414.667 160.417 414.273 159.884 414.02C159.351 413.767 158.771 413.64 158.144 413.64C157.397 413.64 156.724 413.813 156.124 414.16C155.524 414.493 155.051 414.967 154.704 415.58C154.357 416.193 154.184 416.913 154.184 417.74C154.184 418.567 154.357 419.287 154.704 419.9C155.051 420.513 155.524 420.993 156.124 421.34C156.724 421.673 157.397 421.84 158.144 421.84C158.771 421.84 159.351 421.713 159.884 421.46C160.417 421.207 160.864 420.82 161.224 420.3L162.284 421.02C161.871 421.7 161.304 422.22 160.584 422.58C159.864 422.927 159.057 423.1 158.164 423.1ZM171.554 423V420.68L171.494 420.3V416.42C171.494 415.527 171.24 414.84 170.734 414.36C170.24 413.88 169.5 413.64 168.514 413.64C167.834 413.64 167.187 413.753 166.574 413.98C165.96 414.207 165.44 414.507 165.014 414.88L164.374 413.82C164.907 413.367 165.547 413.02 166.294 412.78C167.04 412.527 167.827 412.4 168.654 412.4C170.014 412.4 171.06 412.74 171.794 413.42C172.54 414.087 172.914 415.107 172.914 416.48V423H171.554ZM167.934 423.1C167.147 423.1 166.46 422.973 165.874 422.72C165.3 422.453 164.86 422.093 164.554 421.64C164.247 421.173 164.094 420.64 164.094 420.04C164.094 419.493 164.22 419 164.474 418.56C164.74 418.107 165.167 417.747 165.754 417.48C166.354 417.2 167.154 417.06 168.154 417.06H171.774V418.12H168.194C167.18 418.12 166.474 418.3 166.074 418.66C165.687 419.02 165.494 419.467 165.494 420C165.494 420.6 165.727 421.08 166.194 421.44C166.66 421.8 167.314 421.98 168.154 421.98C168.954 421.98 169.64 421.8 170.214 421.44C170.8 421.067 171.227 420.533 171.494 419.84L171.814 420.82C171.547 421.513 171.08 422.067 170.414 422.48C169.76 422.893 168.934 423.1 167.934 423.1ZM176.694 423V412.5H178.114V420.84L185.134 412.5H186.394V423H184.974V414.64L177.974 423H176.694ZM181.454 410.98C180.574 410.98 179.86 410.76 179.314 410.32C178.78 409.867 178.5 409.22 178.474 408.38H179.494C179.507 408.913 179.694 409.333 180.054 409.64C180.414 409.947 180.88 410.1 181.454 410.1C182.027 410.1 182.494 409.947 182.854 409.64C183.227 409.333 183.42 408.913 183.434 408.38H184.454C184.44 409.22 184.16 409.867 183.614 410.32C183.067 410.76 182.347 410.98 181.454 410.98ZM192.463 423V413.36L192.823 413.74H188.483V412.5H197.863V413.74H193.523L193.883 413.36V423H192.463ZM203.928 423.1C202.835 423.1 201.875 422.873 201.048 422.42C200.222 421.953 199.575 421.32 199.108 420.52C198.642 419.707 198.408 418.78 198.408 417.74C198.408 416.7 198.628 415.78 199.068 414.98C199.522 414.18 200.135 413.553 200.908 413.1C201.695 412.633 202.575 412.4 203.548 412.4C204.535 412.4 205.408 412.627 206.168 413.08C206.942 413.52 207.548 414.147 207.988 414.96C208.428 415.76 208.648 416.687 208.648 417.74C208.648 417.807 208.642 417.88 208.628 417.96C208.628 418.027 208.628 418.1 208.628 418.18H199.488V417.12H207.868L207.308 417.54C207.308 416.78 207.142 416.107 206.808 415.52C206.488 414.92 206.048 414.453 205.488 414.12C204.928 413.787 204.282 413.62 203.548 413.62C202.828 413.62 202.182 413.787 201.608 414.12C201.035 414.453 200.588 414.92 200.268 415.52C199.948 416.12 199.788 416.807 199.788 417.58V417.8C199.788 418.6 199.962 419.307 200.308 419.92C200.668 420.52 201.162 420.993 201.788 421.34C202.428 421.673 203.155 421.84 203.968 421.84C204.608 421.84 205.202 421.727 205.748 421.5C206.308 421.273 206.788 420.927 207.188 420.46L207.988 421.38C207.522 421.94 206.935 422.367 206.228 422.66C205.535 422.953 204.768 423.1 203.928 423.1ZM217.026 423V412.5H226.466V423H225.046V413.36L225.406 413.74H218.086L218.446 413.36V423H217.026ZM235.922 423.1C235.016 423.1 234.196 422.893 233.462 422.48C232.729 422.053 232.142 421.447 231.702 420.66C231.276 419.86 231.062 418.887 231.062 417.74C231.062 416.593 231.276 415.627 231.702 414.84C232.129 414.04 232.709 413.433 233.442 413.02C234.176 412.607 235.002 412.4 235.922 412.4C236.922 412.4 237.816 412.627 238.602 413.08C239.402 413.52 240.029 414.147 240.482 414.96C240.936 415.76 241.162 416.687 241.162 417.74C241.162 418.807 240.936 419.74 240.482 420.54C240.029 421.34 239.402 421.967 238.602 422.42C237.816 422.873 236.922 423.1 235.922 423.1ZM230.502 426.88V412.5H231.862V415.66L231.722 417.76L231.922 419.88V426.88H230.502ZM235.822 421.84C236.569 421.84 237.236 421.673 237.822 421.34C238.409 420.993 238.876 420.513 239.222 419.9C239.569 419.273 239.742 418.553 239.742 417.74C239.742 416.927 239.569 416.213 239.222 415.6C238.876 414.987 238.409 414.507 237.822 414.16C237.236 413.813 236.569 413.64 235.822 413.64C235.076 413.64 234.402 413.813 233.802 414.16C233.216 414.507 232.749 414.987 232.402 415.6C232.069 416.213 231.902 416.927 231.902 417.74C231.902 418.553 232.069 419.273 232.402 419.9C232.749 420.513 233.216 420.993 233.802 421.34C234.402 421.673 235.076 421.84 235.822 421.84ZM248.533 423.1C247.52 423.1 246.607 422.873 245.793 422.42C244.993 421.953 244.36 421.32 243.893 420.52C243.427 419.707 243.193 418.78 243.193 417.74C243.193 416.687 243.427 415.76 243.893 414.96C244.36 414.16 244.993 413.533 245.793 413.08C246.593 412.627 247.507 412.4 248.533 412.4C249.573 412.4 250.493 412.627 251.293 413.08C252.107 413.533 252.74 414.16 253.193 414.96C253.66 415.76 253.893 416.687 253.893 417.74C253.893 418.78 253.66 419.707 253.193 420.52C252.74 421.32 252.107 421.953 251.293 422.42C250.48 422.873 249.56 423.1 248.533 423.1ZM248.533 421.84C249.293 421.84 249.967 421.673 250.553 421.34C251.14 420.993 251.6 420.513 251.933 419.9C252.28 419.273 252.453 418.553 252.453 417.74C252.453 416.913 252.28 416.193 251.933 415.58C251.6 414.967 251.14 414.493 250.553 414.16C249.967 413.813 249.3 413.64 248.553 413.64C247.807 413.64 247.14 413.813 246.553 414.16C245.967 414.493 245.5 414.967 245.153 415.58C244.807 416.193 244.633 416.913 244.633 417.74C244.633 418.553 244.807 419.273 245.153 419.9C245.5 420.513 245.967 420.993 246.553 421.34C247.14 421.673 247.8 421.84 248.533 421.84ZM256.928 423V412.5H258.348V420.84L265.368 412.5H266.628V423H265.208V414.64L258.208 423H256.928ZM273.303 423.12C272.543 423.12 271.79 423.013 271.043 422.8C270.296 422.587 269.636 422.26 269.063 421.82L269.523 420.76C270.03 421.133 270.616 421.42 271.283 421.62C271.95 421.807 272.61 421.9 273.263 421.9C273.916 421.887 274.483 421.793 274.963 421.62C275.443 421.447 275.816 421.207 276.083 420.9C276.35 420.593 276.483 420.247 276.483 419.86C276.483 419.3 276.23 418.867 275.723 418.56C275.216 418.24 274.523 418.08 273.643 418.08H271.843V417.04H273.543C274.063 417.04 274.523 416.973 274.923 416.84C275.323 416.707 275.63 416.513 275.843 416.26C276.07 416.007 276.183 415.707 276.183 415.36C276.183 414.987 276.05 414.667 275.783 414.4C275.53 414.133 275.176 413.933 274.723 413.8C274.27 413.667 273.756 413.6 273.183 413.6C272.663 413.613 272.123 413.693 271.563 413.84C271.003 413.973 270.45 414.18 269.903 414.46L269.503 413.36C270.116 413.04 270.723 412.8 271.323 412.64C271.936 412.467 272.55 412.38 273.163 412.38C274.003 412.353 274.756 412.453 275.423 412.68C276.103 412.907 276.643 413.233 277.043 413.66C277.443 414.073 277.643 414.573 277.643 415.16C277.643 415.68 277.483 416.133 277.163 416.52C276.843 416.907 276.416 417.207 275.883 417.42C275.35 417.633 274.743 417.74 274.063 417.74L274.123 417.36C275.323 417.36 276.256 417.593 276.923 418.06C277.603 418.527 277.943 419.16 277.943 419.96C277.943 420.587 277.736 421.14 277.323 421.62C276.91 422.087 276.35 422.453 275.643 422.72C274.95 422.987 274.17 423.12 273.303 423.12ZM281.166 423V412.5H285.806C286.993 412.5 287.926 412.727 288.606 413.18C289.3 413.633 289.646 414.3 289.646 415.18C289.646 416.033 289.32 416.693 288.666 417.16C288.013 417.613 287.153 417.84 286.086 417.84L286.366 417.42C287.62 417.42 288.54 417.653 289.126 418.12C289.713 418.587 290.006 419.26 290.006 420.14C290.006 421.047 289.673 421.753 289.006 422.26C288.353 422.753 287.333 423 285.946 423H281.166ZM282.546 421.88H285.886C286.78 421.88 287.453 421.74 287.906 421.46C288.373 421.167 288.606 420.7 288.606 420.06C288.606 419.42 288.4 418.953 287.986 418.66C287.573 418.367 286.92 418.22 286.026 418.22H282.546V421.88ZM282.546 417.16H285.706C286.52 417.16 287.14 417.007 287.566 416.7C288.006 416.393 288.226 415.947 288.226 415.36C288.226 414.773 288.006 414.333 287.566 414.04C287.14 413.747 286.52 413.6 285.706 413.6H282.546V417.16ZM297.654 423.1C296.641 423.1 295.728 422.873 294.914 422.42C294.114 421.953 293.481 421.32 293.014 420.52C292.548 419.707 292.314 418.78 292.314 417.74C292.314 416.687 292.548 415.76 293.014 414.96C293.481 414.16 294.114 413.533 294.914 413.08C295.714 412.627 296.628 412.4 297.654 412.4C298.694 412.4 299.614 412.627 300.414 413.08C301.228 413.533 301.861 414.16 302.314 414.96C302.781 415.76 303.014 416.687 303.014 417.74C303.014 418.78 302.781 419.707 302.314 420.52C301.861 421.32 301.228 421.953 300.414 422.42C299.601 422.873 298.681 423.1 297.654 423.1ZM297.654 421.84C298.414 421.84 299.088 421.673 299.674 421.34C300.261 420.993 300.721 420.513 301.054 419.9C301.401 419.273 301.574 418.553 301.574 417.74C301.574 416.913 301.401 416.193 301.054 415.58C300.721 414.967 300.261 414.493 299.674 414.16C299.088 413.813 298.421 413.64 297.674 413.64C296.928 413.64 296.261 413.813 295.674 414.16C295.088 414.493 294.621 414.967 294.274 415.58C293.928 416.193 293.754 416.913 293.754 417.74C293.754 418.553 293.928 419.273 294.274 419.9C294.621 420.513 295.088 420.993 295.674 421.34C296.261 421.673 296.921 421.84 297.654 421.84ZM313.191 422.32V413.74H308.131L308.011 416.08C307.984 416.787 307.937 417.48 307.871 418.16C307.817 418.84 307.717 419.467 307.571 420.04C307.437 420.6 307.244 421.06 306.991 421.42C306.737 421.767 306.411 421.967 306.011 422.02L304.591 421.76C305.004 421.773 305.344 421.627 305.611 421.32C305.877 421 306.084 420.567 306.231 420.02C306.377 419.473 306.484 418.853 306.551 418.16C306.617 417.453 306.671 416.733 306.711 416L306.851 412.5H314.611V422.32H313.191ZM304.151 425.54V421.76H316.251V425.54H314.911V423H305.491V425.54H304.151ZM319.018 423V412.5H320.438V420.84L327.458 412.5H328.718V423H327.298V414.64L320.298 423H319.018ZM334.788 423V413.36L335.148 413.74H330.808V412.5H340.188V413.74H335.848L336.208 413.36V423H334.788ZM346.252 423.1C345.159 423.1 344.199 422.873 343.372 422.42C342.546 421.953 341.899 421.32 341.432 420.52C340.966 419.707 340.732 418.78 340.732 417.74C340.732 416.7 340.952 415.78 341.392 414.98C341.846 414.18 342.459 413.553 343.232 413.1C344.019 412.633 344.899 412.4 345.872 412.4C346.859 412.4 347.732 412.627 348.492 413.08C349.266 413.52 349.872 414.147 350.312 414.96C350.752 415.76 350.972 416.687 350.972 417.74C350.972 417.807 350.966 417.88 350.952 417.96C350.952 418.027 350.952 418.1 350.952 418.18H341.812V417.12H350.192L349.632 417.54C349.632 416.78 349.466 416.107 349.132 415.52C348.812 414.92 348.372 414.453 347.812 414.12C347.252 413.787 346.606 413.62 345.872 413.62C345.152 413.62 344.506 413.787 343.932 414.12C343.359 414.453 342.912 414.92 342.592 415.52C342.272 416.12 342.112 416.807 342.112 417.58V417.8C342.112 418.6 342.286 419.307 342.632 419.92C342.992 420.52 343.486 420.993 344.112 421.34C344.752 421.673 345.479 421.84 346.292 421.84C346.932 421.84 347.526 421.727 348.072 421.5C348.632 421.273 349.112 420.927 349.512 420.46L350.312 421.38C349.846 421.94 349.259 422.367 348.552 422.66C347.859 422.953 347.092 423.1 346.252 423.1ZM351.981 422.98L352.081 421.76C352.174 421.773 352.261 421.793 352.341 421.82C352.434 421.833 352.514 421.84 352.581 421.84C353.008 421.84 353.348 421.68 353.601 421.36C353.868 421.04 354.068 420.613 354.201 420.08C354.334 419.547 354.428 418.947 354.481 418.28C354.534 417.6 354.581 416.92 354.621 416.24L354.801 412.5H362.501V423H361.081V413.32L361.441 413.74H355.721L356.061 413.3L355.901 416.34C355.861 417.247 355.788 418.113 355.681 418.94C355.588 419.767 355.434 420.493 355.221 421.12C355.021 421.747 354.741 422.24 354.381 422.6C354.021 422.947 353.561 423.12 353.001 423.12C352.841 423.12 352.674 423.107 352.501 423.08C352.341 423.053 352.168 423.02 351.981 422.98ZM373.318 423V419.22L373.578 419.52H370.018C368.671 419.52 367.618 419.227 366.858 418.64C366.098 418.053 365.718 417.2 365.718 416.08C365.718 414.88 366.124 413.987 366.938 413.4C367.751 412.8 368.838 412.5 370.198 412.5H374.618V423H373.318ZM365.638 423L368.518 418.96H369.998L367.178 423H365.638ZM373.318 418.8V413.32L373.578 413.74H370.238C369.264 413.74 368.504 413.927 367.958 414.3C367.424 414.673 367.158 415.28 367.158 416.12C367.158 417.68 368.151 418.46 370.138 418.46H373.578L373.318 418.8Z" fill="black"/>
<path d="M103.884 95.488V91.024H116.34V95.488H103.884ZM107.196 80.368C109.092 80.368 110.832 80.692 112.416 81.34C114 81.964 115.38 82.864 116.556 84.04C117.732 85.216 118.644 86.596 119.292 88.18C119.94 89.764 120.264 91.504 120.264 93.4C120.264 95.296 119.94 97.036 119.292 98.62C118.644 100.204 117.732 101.584 116.556 102.76C115.38 103.936 114 104.848 112.416 105.496C110.832 106.12 109.092 106.432 107.196 106.432C104.964 106.432 102.948 106.048 101.148 105.28C99.372 104.512 97.884 103.396 96.684 101.932L100.392 98.476C101.28 99.484 102.264 100.24 103.344 100.744C104.424 101.224 105.612 101.464 106.908 101.464C107.988 101.464 108.984 101.272 109.896 100.888C110.832 100.48 111.624 99.928 112.272 99.232C112.944 98.512 113.448 97.66 113.784 96.676C114.144 95.692 114.324 94.6 114.324 93.4C114.324 92.2 114.144 91.108 113.784 90.124C113.448 89.14 112.944 88.3 112.272 87.604C111.624 86.884 110.832 86.332 109.896 85.948C108.984 85.54 107.988 85.336 106.908 85.336C105.612 85.336 104.424 85.588 103.344 86.092C102.264 86.572 101.28 87.316 100.392 88.324L96.684 84.868C97.884 83.404 99.372 82.288 101.148 81.52C102.948 80.752 104.964 80.368 107.196 80.368ZM129.916 106V84.22L131.248 85.552H121.888V80.8H143.74V85.552H134.38L135.676 84.22V106H129.916ZM159.11 106.432C157.118 106.432 155.27 106.108 153.566 105.46C151.886 104.812 150.422 103.9 149.174 102.724C147.95 101.548 146.99 100.168 146.294 98.584C145.622 97 145.286 95.272 145.286 93.4C145.286 91.528 145.622 89.8 146.294 88.216C146.99 86.632 147.962 85.252 149.21 84.076C150.458 82.9 151.922 81.988 153.602 81.34C155.282 80.692 157.106 80.368 159.074 80.368C161.066 80.368 162.89 80.692 164.546 81.34C166.226 81.988 167.678 82.9 168.902 84.076C170.15 85.252 171.122 86.632 171.818 88.216C172.514 89.776 172.862 91.504 172.862 93.4C172.862 95.272 172.514 97.012 171.818 98.62C171.122 100.204 170.15 101.584 168.902 102.76C167.678 103.912 166.226 104.812 164.546 105.46C162.89 106.108 161.078 106.432 159.11 106.432ZM159.074 101.464C160.202 101.464 161.234 101.272 162.17 100.888C163.13 100.504 163.97 99.952 164.69 99.232C165.41 98.512 165.962 97.66 166.346 96.676C166.754 95.692 166.958 94.6 166.958 93.4C166.958 92.2 166.754 91.108 166.346 90.124C165.962 89.14 165.41 88.288 164.69 87.568C163.994 86.848 163.166 86.296 162.206 85.912C161.246 85.528 160.202 85.336 159.074 85.336C157.946 85.336 156.902 85.528 155.942 85.912C155.006 86.296 154.178 86.848 153.458 87.568C152.738 88.288 152.174 89.14 151.766 90.124C151.382 91.108 151.19 92.2 151.19 93.4C151.19 94.576 151.382 95.668 151.766 96.676C152.174 97.66 152.726 98.512 153.422 99.232C154.142 99.952 154.982 100.504 155.942 100.888C156.902 101.272 157.946 101.464 159.074 101.464ZM185.282 103.768L187.082 99.592C188.162 100.24 189.314 100.744 190.538 101.104C191.786 101.44 192.998 101.632 194.174 101.68C195.374 101.704 196.454 101.584 197.414 101.32C198.398 101.056 199.178 100.66 199.754 100.132C200.354 99.604 200.654 98.932 200.654 98.116C200.654 97.156 200.258 96.448 199.466 95.992C198.674 95.512 197.618 95.272 196.298 95.272H190.142V90.88H195.866C197.042 90.88 197.954 90.64 198.602 90.16C199.274 89.68 199.61 89.02 199.61 88.18C199.61 87.46 199.37 86.884 198.89 86.452C198.41 85.996 197.75 85.66 196.91 85.444C196.094 85.228 195.17 85.132 194.138 85.156C193.106 85.18 192.038 85.348 190.934 85.66C189.83 85.972 188.774 86.404 187.766 86.956L186.002 82.456C187.634 81.616 189.35 81.04 191.15 80.728C192.974 80.392 194.726 80.308 196.406 80.476C198.11 80.62 199.646 81.004 201.014 81.628C202.382 82.228 203.474 83.02 204.29 84.004C205.106 84.988 205.514 86.152 205.514 87.496C205.514 88.696 205.202 89.764 204.578 90.7C203.954 91.636 203.078 92.356 201.95 92.86C200.846 93.364 199.574 93.616 198.134 93.616L198.278 92.32C199.958 92.32 201.41 92.608 202.634 93.184C203.882 93.736 204.842 94.516 205.514 95.524C206.21 96.508 206.558 97.648 206.558 98.944C206.558 100.144 206.234 101.224 205.586 102.184C204.962 103.12 204.098 103.912 202.994 104.56C201.89 105.208 200.63 105.688 199.214 106C197.798 106.312 196.286 106.444 194.678 106.396C193.094 106.348 191.498 106.12 189.89 105.712C188.282 105.28 186.746 104.632 185.282 103.768ZM208.331 106L219.563 80.8H225.323L236.591 106H230.471L221.255 83.752H223.559L214.307 106H208.331ZM213.947 100.6L215.495 96.172H228.455L230.039 100.6H213.947ZM239.933 106V80.8H257.717L257.681 85.552H244.361L245.693 84.22L245.729 106H239.933ZM258.396 106.396C257.964 106.396 257.508 106.36 257.028 106.288C256.572 106.216 256.068 106.12 255.516 106L255.876 101.068C256.212 101.164 256.56 101.212 256.92 101.212C257.904 101.212 258.672 100.816 259.224 100.024C259.776 99.208 260.172 98.044 260.412 96.532C260.652 95.02 260.808 93.184 260.88 91.024L261.24 80.8H280.608V106H274.848V84.22L276.18 85.552H265.056L266.244 84.148L266.028 90.808C265.956 93.28 265.788 95.476 265.524 97.396C265.26 99.316 264.852 100.948 264.3 102.292C263.748 103.636 262.992 104.656 262.032 105.352C261.072 106.048 259.86 106.396 258.396 106.396ZM287.766 101.248C289.158 101.656 290.322 101.776 291.258 101.608C292.218 101.416 293.07 100.744 293.814 99.592L295.038 97.756L295.578 97.144L303.93 80.8H309.654L298.926 100.744C297.966 102.544 296.826 103.924 295.506 104.884C294.21 105.844 292.782 106.384 291.222 106.504C289.662 106.648 288.042 106.372 286.362 105.676L287.766 101.248ZM295.47 102.004L284.094 80.8H290.322L298.674 97.72L295.47 102.004ZM327.473 101.248L326.177 102.58V80.8H331.973V102.58L330.605 101.248H341.261L339.893 102.58V80.8H345.689V106H312.425V80.8H318.221V102.58L316.889 101.248H327.473ZM368.249 106L360.401 93.868L365.117 91.024L374.873 106H368.249ZM351.869 106V80.8H357.665V106H351.869ZM355.973 95.848V90.988H364.757V95.848H355.973ZM365.657 94.048L360.293 93.4L368.465 80.8H374.621L365.657 94.048ZM374.233 106L385.465 80.8H391.225L402.493 106H396.373L387.157 83.752H389.461L380.209 106H374.233ZM379.849 100.6L381.397 96.172H394.357L395.941 100.6H379.849Z" fill="black"/>
</svg>
